<?xml version="1.0" encoding="UTF-8"?>
<svg xmlns="http://www.w3.org/2000/svg" xmlns:xlink="http://www.w3.org/1999/xlink" width="12pt" height="12pt" viewBox="0 0 12 12" version="1.1">
<g id="surface1">
<path style=" stroke:none;fill-rule:nonzero;fill:rgb(0%,0%,0%);fill-opacity:1;" d="M 6.898438 6 C 6.898438 5.503906 6.496094 5.101562 6 5.101562 C 5.503906 5.101562 5.101562 5.503906 5.101562 6 C 5.101562 6.496094 5.503906 6.898438 6 6.898438 C 6.496094 6.898438 6.898438 6.496094 6.898438 6 "/>
<path style="fill:none;stroke-width:6;stroke-linecap:butt;stroke-linejoin:miter;stroke:rgb(0%,0%,0%);stroke-opacity:1;stroke-miterlimit:10;" d="M 110 60 C 110 87.617188 87.617188 110 60 110 C 32.382812 110 10 87.617188 10 60 C 10 32.382812 32.382812 10 60 10 C 87.617188 10 110 32.382812 110 60 Z M 110 60 " transform="matrix(0.1,0,0,-0.1,0,12)"/>
</g>
</svg>
