<?xml version="1.0" encoding="UTF-8"?>
<svg xmlns="http://www.w3.org/2000/svg" xmlns:xlink="http://www.w3.org/1999/xlink" width="12pt" height="12pt" viewBox="0 0 12 12" version="1.1">
<defs>
<clipPath id="clip1">
  <path d="M 1 6 L 11 6 L 11 11 L 1 11 Z M 1 6 "/>
</clipPath>
<clipPath id="clip2">
  <path d="M 11 6 C 11 8.761719 8.761719 11 6 11 C 3.238281 11 1 8.761719 1 6 L 4.332031 6 C 4.332031 6.921875 5.078125 7.667969 6 7.667969 C 6.921875 7.667969 7.667969 6.921875 7.667969 6 "/>
</clipPath>
</defs>
<g id="surface1">
<path style="fill:none;stroke-width:6;stroke-linecap:butt;stroke-linejoin:miter;stroke:rgb(0%,0%,0%);stroke-opacity:1;stroke-miterlimit:10;" d="M 110 60 C 110 87.617188 87.617188 110 60 110 C 32.382812 110 10 87.617188 10 60 C 10 32.382812 32.382812 10 60 10 C 87.617188 10 110 32.382812 110 60 Z M 110 60 " transform="matrix(0.1,0,0,-0.1,0,12)"/>
<path style="fill:none;stroke-width:6;stroke-linecap:butt;stroke-linejoin:miter;stroke:rgb(0%,0%,0%);stroke-opacity:1;stroke-miterlimit:10;" d="M 76.679688 60 C 76.679688 69.21875 69.21875 76.679688 60 76.679688 C 50.78125 76.679688 43.320312 69.21875 43.320312 60 C 43.320312 50.78125 50.78125 43.320312 60 43.320312 C 69.21875 43.320312 76.679688 50.78125 76.679688 60 Z M 76.679688 60 " transform="matrix(0.1,0,0,-0.1,0,12)"/>
<g clip-path="url(#clip1)" clip-rule="nonzero">
<g clip-path="url(#clip2)" clip-rule="nonzero">
<path style="fill:none;stroke-width:6;stroke-linecap:butt;stroke-linejoin:miter;stroke:rgb(0%,0%,0%);stroke-opacity:1;stroke-miterlimit:10;" d="M 43.320312 60 C 43.320312 50.78125 50.78125 43.320312 60 43.320312 L 107.148438 43.320312 " transform="matrix(0.1,0,0,-0.1,0,12)"/>
<path style="fill:none;stroke-width:6;stroke-linecap:butt;stroke-linejoin:miter;stroke:rgb(0%,0%,0%);stroke-opacity:1;stroke-miterlimit:10;" d="M 43.320312 60 C 43.320312 55.585938 45.078125 51.328125 48.203125 48.203125 L 81.5625 14.882812 " transform="matrix(0.1,0,0,-0.1,0,12)"/>
</g>
</g>
</g>
</svg>
