<?xml version="1.0" encoding="UTF-8" standalone="no"?>
<svg
   xmlns:dc="http://purl.org/dc/elements/1.1/"
   xmlns:cc="http://creativecommons.org/ns#"
   xmlns:rdf="http://www.w3.org/1999/02/22-rdf-syntax-ns#"
   xmlns:svg="http://www.w3.org/2000/svg"
   xmlns="http://www.w3.org/2000/svg"
   xmlns:sodipodi="http://sodipodi.sourceforge.net/DTD/sodipodi-0.dtd"
   xmlns:inkscape="http://www.inkscape.org/namespaces/inkscape"
   width="12pt"
   height="12pt"
   viewBox="0 0 12 12"
   version="1.1"
   id="svg14"
   sodipodi:docname="Quaoar.svg"
   inkscape:version="0.92.5 (2060ec1f9f, 2020-04-08)">
  <metadata
     id="metadata18">
    <rdf:RDF>
      <cc:Work
         rdf:about="">
        <dc:format>image/svg+xml</dc:format>
        <dc:type
           rdf:resource="http://purl.org/dc/dcmitype/StillImage" />
      </cc:Work>
    </rdf:RDF>
  </metadata>
  <sodipodi:namedview
     pagecolor="#ffffff"
     bordercolor="#666666"
     borderopacity="1"
     objecttolerance="10"
     gridtolerance="10"
     guidetolerance="10"
     inkscape:pageopacity="0"
     inkscape:pageshadow="2"
     inkscape:window-width="1920"
     inkscape:window-height="1015"
     id="namedview16"
     showgrid="false"
     inkscape:zoom="29.5"
     inkscape:cx="8"
     inkscape:cy="8"
     inkscape:window-x="0"
     inkscape:window-y="0"
     inkscape:window-maximized="1"
     inkscape:current-layer="svg14" />
  <defs
     id="defs5">
    <clipPath
       id="clip1">
      <path
         d="M 11 11 L 7.875 9.125 L 6 6 L 9.125 7.875 L 76.710938 76.710938 C 95.464844 57.957031 106 32.523438 106 6 C 106 -49.226562 61.226562 -94 6 -94 C -49.226562 -94 -94 -49.226562 -94 6 C -94 61.226562 -49.226562 106 6 106 C 32.523438 106 57.957031 95.464844 76.710938 76.710938 "
         id="path2" />
    </clipPath>
  </defs>
  <g
     id="g834">
    <path
       style="fill:none;stroke:#000000;stroke-width:0.6;stroke-linecap:round;stroke-linejoin:round;stroke-miterlimit:10;stroke-opacity:1;stroke-dasharray:none"
       d="M 11,11 7.875,9.125 6,6 9.125,7.875 Z m 0,0"
       id="path7"
       inkscape:connector-curvature="0" />
    <g
       clip-path="url(#clip1)"
       id="g11"
       style="clip-rule:nonzero;stroke-width:0.6;stroke-miterlimit:10;stroke-dasharray:none;stroke-linecap:round;stroke-linejoin:round">
      <path
         style="fill:none;stroke:#000000;stroke-width:6;stroke-linecap:round;stroke-linejoin:round;stroke-miterlimit:10;stroke-opacity:1;stroke-dasharray:none"
         d="M 110,60 60,10 10,60 60,110 Z m 0,0"
         transform="matrix(0.1,0,0,-0.1,0,12)"
         id="path9"
         inkscape:connector-curvature="0" />
    </g>
  </g>
</svg>
